<?xml version="1.0" standalone="no"?>
<!DOCTYPE svg PUBLIC "-//W3C//DTD SVG 20010904//EN"
 "http://www.w3.org/TR/2001/REC-SVG-20010904/DTD/svg10.dtd">
<svg version="1.0" xmlns="http://www.w3.org/2000/svg"
 width="700.000000pt" height="700.000000pt" viewBox="0 0 700.000000 700.000000"
 preserveAspectRatio="xMidYMid meet">
<metadata>
Created by potrace 1.14, written by Peter Selinger 2001-2017
</metadata>
<g transform="translate(0.000000,700.000000) scale(0.100000,-0.100000)"
fill="#000000" stroke="none">
<path d="M3317 6304 c-1 -1 -58 -4 -127 -8 -69 -3 -136 -8 -150 -11 -14 -3
-62 -11 -107 -19 -45 -8 -91 -20 -103 -26 -11 -6 -20 -8 -20 -6 0 3 -49 -12
-109 -33 -333 -119 -611 -323 -831 -610 -28 -36 -137 -208 -146 -231 -4 -8
-20 -43 -37 -78 -17 -35 -49 -118 -71 -184 l-41 -120 -95 -57 c-108 -64 -204
-154 -239 -225 -45 -91 -51 -137 -46 -336 9 -357 15 -535 20 -570 14 -92 95
-200 178 -238 l37 -17 -6 -165 c-4 -91 -8 -199 -10 -240 -4 -116 -4 -739 0
-797 6 -71 15 -112 37 -155 42 -83 99 -127 297 -229 54 -27 87 -51 92 -65 74
-193 224 -402 432 -599 273 -258 605 -456 902 -536 232 -62 407 -60 686 8 60
15 245 94 341 147 236 128 393 247 579 436 119 120 143 148 182 203 12 18 25
34 28 37 29 24 123 192 163 290 11 27 28 42 73 66 101 52 178 95 209 116 68
46 128 133 143 210 8 38 9 823 2 1092 l-5 179 45 25 c78 44 135 118 158 207 6
22 13 126 16 230 4 105 9 265 12 358 6 190 -2 250 -48 341 -39 77 -87 128
-176 187 -41 27 -76 49 -78 49 -15 0 -94 63 -94 75 0 25 -62 199 -100 280 -85
185 -197 343 -350 496 -150 151 -287 249 -470 339 -218 108 -409 159 -655 176
-74 5 -513 12 -518 8z"/>
</g>
</svg>
